
<svg version="1.1" id="Layer_1" xmlns="http://www.w3.org/2000/svg" xmlns:xlink="http://www.w3.org/1999/xlink" x="0px" y="0px"
	 viewBox="0 0 245.8 52" style="enable-background:new 0 0 245.8 52;" xml:space="preserve">
<style type="text/css">
	.st0{fill:#38AAD6;}
	.st1{fill:none;}
</style>
<g id="Grupo_2118" transform="translate(-844.2 -36.155)">
	<path id="Caminho_3189" class="st0" d="M854.2,37.7c-5.5,0-10,4.5-10,10v29.6c0,5.5,4.5,10,10,10s10-4.5,10-10v-2.2l4.3,7.3
		c2.3,5,8.3,7.2,13.3,4.9S889,79,886.6,74c-0.3-0.7-0.7-1.3-1.1-1.9l-4.5-7.7c6.2-5.9,6.4-15.7,0.5-21.9c-2.9-3.1-7-4.8-11.3-4.8
		H854.2z"/>
	<path id="Caminho_3190" class="st0" d="M1018.2,69.6l-7.7-7.3l7.7-7.3c4-3.8,4.1-10.2,0.2-14.2c-3.8-3.9-10-4.1-14-0.3l-5,4.2
		c-1.3-5.4-6.8-8.6-12.1-7.3c-4.4,1.1-7.6,5.1-7.6,9.7v30.2c0,5.5,4.5,10,10,10c4.6,0,8.6-3.1,9.7-7.6l5,4.3
		c3.7,4.1,10,4.4,14.1,0.7c4.1-3.7,4.4-10,0.7-14.1C1018.9,70.3,1018.6,69.9,1018.2,69.6"/>
	<path id="Caminho_3191" class="st0" d="M1068.8,74.3l-7.9-26.3c-2.3-8.1-10.8-12.7-18.8-10.4c-5,1.5-8.9,5.4-10.4,10.4l-7.9,26.2
		c-1.8,5.2,1,10.9,6.2,12.7c5.2,1.8,10.9-1,12.7-6.2c0.1-0.2,0.1-0.4,0.2-0.6l0.9-2.9h5l0.9,2.9c1.5,5.3,7,8.5,12.3,7
		c5.3-1.5,8.5-7,7-12.3C1068.9,74.6,1068.9,74.4,1068.8,74.3"/>
	<path id="Caminho_3192" class="st0" d="M921,37.1c-5.5,0-10,4.5-10,10l0,0V51h-1.5v-3.9c0.5-5.5-3.5-10.4-9-10.9
		c-5.5-0.5-10.4,3.5-10.9,9c-0.1,0.7-0.1,1.3,0,2v19.4c0.1,11.4,9.4,20.7,20.8,20.6s20.7-9.4,20.6-20.8l0,0V47.2
		c0.1-5.5-4.4-10-9.9-10.1C921.1,37.1,921,37.1,921,37.1"/>
	<path id="Caminho_3193" class="st0" d="M970.7,56.5c0.5-0.5,1-1,1.4-1.6c3.1-4.4,2-10.4-2.4-13.5c-0.2-0.1-0.3-0.2-0.5-0.3
		c-2.5-1.6-5.3-2.7-8.2-3.4c-5.1-1.2-10.4-0.9-15.2,1c-5.5,2.3-9.5,6.6-10.8,11.8c-1.3,5.4,0.2,11.1,4,15.2l0.3,0.4
		c-1.9,0.9-3.5,2.4-4.6,4.2c-2.6,4.7-0.9,10.6,3.7,13.2c0.2,0.1,0.4,0.2,0.6,0.3c2.9,1.5,6,2.5,9.2,3c1.8,0.3,3.7,0.5,5.6,0.5
		c3.8,0,7.5-0.7,11-2.1c6.2-2.6,10.4-7.4,11.5-13.1C977.4,66.4,975.3,60.9,970.7,56.5"/>
	<path id="Caminho_3194" class="st0" d="M1067.5,49.7v-7.6h-2.3v-4h8.9v4h-2.2v7.6H1067.5z M1074.5,49.7l1.8-11.5h4.5l1.4,5.1
		l1.4-5.1h4.5l1.8,11.5h-4.3l-0.4-5.2l-1.6,5.2h-2.8l-1.5-5.1l-0.5,5.1H1074.5z"/>
	<rect id="Retângulo_2436" x="844.2" y="37" class="st1" width="245.8" height="50.3"/>
</g>
</svg>
